<svg width="77" height="77" viewBox="0 0 77 77" fill="none" xmlns="http://www.w3.org/2000/svg">
<path fill-rule="evenodd" clip-rule="evenodd" d="M27.0432 43.3223C27.0432 40.837 29.0579 38.8223 31.5432 38.8223H45.4567C47.942 38.8223 49.9567 40.837 49.9567 43.3223V46.9866H48.9567V43.3223C48.9567 41.3893 47.3897 39.8223 45.4567 39.8223H31.5432C29.6102 39.8223 28.0432 41.3893 28.0432 43.3223V54.0025C28.0432 55.9355 29.6102 57.5025 31.5432 57.5025H45.4567C47.3897 57.5025 48.9567 55.9355 48.9567 54.0025V50.3381H49.9567V54.0025C49.9567 56.4878 47.942 58.5025 45.4567 58.5025H31.5432C29.0579 58.5025 27.0432 56.4878 27.0432 54.0025V43.3223Z" fill="black"/>
<path fill-rule="evenodd" clip-rule="evenodd" d="M5.12976 43.3223C5.12976 40.837 7.14448 38.8223 9.62976 38.8223H24.0877C24.3639 38.8223 24.5877 39.0462 24.5877 39.3223V58.0025C24.5877 58.2786 24.3639 58.5025 24.0877 58.5025H9.62977C7.14448 58.5025 5.12976 56.4878 5.12976 54.0025V43.3223ZM9.62976 39.8223C7.69676 39.8223 6.12976 41.3893 6.12976 43.3223V54.0025C6.12976 55.9355 7.69677 57.5025 9.62977 57.5025H23.5877V39.8223H9.62976Z" fill="black"/>
<path fill-rule="evenodd" clip-rule="evenodd" d="M71.8701 54.0025C71.8701 56.4878 69.8554 58.5025 67.3701 58.5025L52.9121 58.5025C52.636 58.5025 52.4121 58.2786 52.4121 58.0025L52.4121 50.4387L53.4121 50.4387L53.4121 57.5025L67.3701 57.5025C69.3031 57.5025 70.8701 55.9355 70.8701 54.0025L70.8701 43.3223C70.8701 41.3893 69.3031 39.8223 67.3701 39.8223L53.4121 39.8223L53.4121 46.9044L52.4121 46.9044L52.4121 39.3223C52.4121 39.0461 52.636 38.8223 52.9121 38.8223L67.3701 38.8223C69.8554 38.8223 71.8701 40.837 71.8701 43.3223L71.8701 54.0025Z" fill="black"/>
<path fill-rule="evenodd" clip-rule="evenodd" d="M36.7552 48.6624C36.7552 47.4357 37.7497 46.4413 38.9763 46.4413H53.7057C54.9324 46.4413 55.9268 47.4357 55.9268 48.6624C55.9268 49.8891 54.9324 50.8835 53.7057 50.8835H38.9763C37.7497 50.8835 36.7552 49.8891 36.7552 48.6624ZM38.9763 47.4413C38.302 47.4413 37.7552 47.988 37.7552 48.6624C37.7552 49.3368 38.302 49.8835 38.9763 49.8835H53.7057C54.3801 49.8835 54.9268 49.3368 54.9268 48.6624C54.9268 47.988 54.3801 47.4413 53.7057 47.4413H38.9763Z" fill="black"/>
<path fill-rule="evenodd" clip-rule="evenodd" d="M8.8717 48.9138C8.8717 47.6871 9.86612 46.6927 11.0928 46.6927H11.1798C12.4065 46.6927 13.4009 47.6871 13.4009 48.9138C13.4009 50.1405 12.4065 51.1349 11.1798 51.1349H11.0928C9.86612 51.1349 8.8717 50.1405 8.8717 48.9138ZM11.0928 47.6927C10.4184 47.6927 9.8717 48.2394 9.8717 48.9138C9.8717 49.5882 10.4184 50.1349 11.0928 50.1349H11.1798C11.8542 50.1349 12.4009 49.5882 12.4009 48.9138C12.4009 48.2394 11.8542 47.6927 11.1798 47.6927H11.0928Z" fill="black"/>
<path fill-rule="evenodd" clip-rule="evenodd" d="M14.8218 48.9138C14.8218 47.6871 15.8163 46.6927 17.0429 46.6927H17.13C18.3566 46.6927 19.3511 47.6871 19.3511 48.9138C19.3511 50.1405 18.3566 51.1349 17.13 51.1349H17.0429C15.8163 51.1349 14.8218 50.1405 14.8218 48.9138ZM17.0429 47.6927C16.3685 47.6927 15.8218 48.2394 15.8218 48.9138C15.8218 49.5882 16.3685 50.1349 17.0429 50.1349H17.13C17.8044 50.1349 18.3511 49.5882 18.3511 48.9138C18.3511 48.2394 17.8044 47.6927 17.13 47.6927H17.0429Z" fill="black"/>
<path fill-rule="evenodd" clip-rule="evenodd" d="M56.5728 48.9138C56.5728 47.6871 57.5672 46.6927 58.7938 46.6927H58.8809C60.1076 46.6927 61.102 47.6871 61.102 48.9138C61.102 50.1405 60.1076 51.1349 58.8809 51.1349H58.7938C57.5672 51.1349 56.5728 50.1405 56.5728 48.9138ZM58.7938 47.6927C58.1195 47.6927 57.5728 48.2394 57.5728 48.9138C57.5728 49.5882 58.1195 50.1349 58.7938 50.1349H58.8809C59.5553 50.1349 60.102 49.5882 60.102 48.9138C60.102 48.2394 59.5553 47.6927 58.8809 47.6927H58.7938Z" fill="black"/>
<path fill-rule="evenodd" clip-rule="evenodd" d="M62.5229 48.9138C62.5229 47.6871 63.5174 46.6927 64.744 46.6927H64.8311C66.0578 46.6927 67.0522 47.6871 67.0522 48.9138C67.0522 50.1405 66.0577 51.1349 64.8311 51.1349H64.744C63.5174 51.1349 62.5229 50.1405 62.5229 48.9138ZM64.744 47.6927C64.0697 47.6927 63.5229 48.2394 63.5229 48.9138C63.5229 49.5882 64.0697 50.1349 64.744 50.1349H64.8311C65.5055 50.1349 66.0522 49.5882 66.0522 48.9138C66.0522 48.2394 65.5055 47.6927 64.8311 47.6927H64.744Z" fill="black"/>
<path fill-rule="evenodd" clip-rule="evenodd" d="M23.5878 41.181C23.5878 37.5912 26.4979 34.681 30.0878 34.681H46.9123C50.5021 34.681 53.4123 37.5912 53.4123 41.181V46.9045H52.4123V41.181C52.4123 38.1435 49.9499 35.681 46.9123 35.681H30.0878C27.0502 35.681 24.5878 38.1435 24.5878 41.181V56.1438C24.5878 59.1813 27.0502 61.6438 30.0878 61.6438H46.9123C49.9499 61.6438 52.4123 59.1813 52.4123 56.1438V50.4835H53.4123V56.1438C53.4123 59.7336 50.5021 62.6438 46.9123 62.6438H30.0878C26.4979 62.6438 23.5878 59.7336 23.5878 56.1438V41.181Z" fill="black"/>
<path fill-rule="evenodd" clip-rule="evenodd" d="M28.1748 29.0474C20.4672 32.4079 14.1812 36.7375 10.7627 39.6869L10.1094 38.9297C13.6021 35.9164 19.9732 31.5324 27.7752 28.1308C35.5756 24.7298 44.8459 22.2936 54.1217 23.2266C54.3044 23.245 54.4623 23.3621 54.5331 23.5315L61.0378 39.1157L60.1149 39.5009L53.7255 24.193C44.7777 23.3636 35.7999 25.7229 28.1748 29.0474Z" fill="black"/>
<path fill-rule="evenodd" clip-rule="evenodd" d="M26.8301 22.2219C22.4225 26.4426 18.5928 31.6913 16.4182 35.2334L15.566 34.7102C17.773 31.1152 21.6541 25.7938 26.1385 21.4997C28.3808 19.3524 30.7885 17.448 33.2266 16.1473C35.6624 14.8479 38.165 14.1318 40.5793 14.4192C40.7203 14.436 40.8475 14.5119 40.9292 14.6281L47.0273 23.301L46.2093 23.8762L40.2419 15.3892C38.1658 15.201 35.9502 15.8277 33.6973 17.0296C31.3674 18.2726 29.0337 20.1118 26.8301 22.2219Z" fill="black"/>
</svg>
